<?xml version="1.0" encoding="UTF-8" standalone="no"?>
<!DOCTYPE svg PUBLIC "-//W3C//DTD SVG 1.1//EN"
 "http://www.w3.org/Graphics/SVG/1.1/DTD/svg11.dtd">
<!-- Generated by graphviz version 14.0.2 (0)
 -->
<!-- Title: G Pages: 1 -->
<svg width="470pt" height="154pt"
 viewBox="0.00 0.00 470.00 154.00" xmlns="http://www.w3.org/2000/svg" xmlns:xlink="http://www.w3.org/1999/xlink">
<g id="graph0" class="graph" transform="scale(1 1) rotate(0) translate(4 149.5)">
<title>G</title>
<polygon fill="white" stroke="none" points="-4,4 -4,-149.5 466.25,-149.5 466.25,4 -4,4"/>
<g id="clust1" class="cluster">
<title>cluster_module.budget</title>
<polygon fill="lightyellow" stroke="black" points="142.25,-57.5 142.25,-137.5 454.25,-137.5 454.25,-57.5 142.25,-57.5"/>
<text xml:space="preserve" text-anchor="middle" x="298.25" y="-120.2" font-family="sans-serif" font-size="14.00">module.budget</text>
</g>
<!-- google_monitoring_notification_channel.notification_channel -->
<g id="node1" class="node">
<title>google_monitoring_notification_channel.notification_channel</title>
<polygon fill="lightblue" stroke="black" points="300.5,-47 148.75,-47 148.75,0 300.5,0 300.5,-47"/>
<text xml:space="preserve" text-anchor="middle" x="224.62" y="-29.7" font-family="sans-serif" font-size="14.00">Notification Channel</text>
<text xml:space="preserve" text-anchor="middle" x="224.62" y="-10.2" font-family="sans-serif" font-size="14.00">(root)</text>
</g>
<!-- google_project_service.tbd&#45;service -->
<g id="node2" class="node">
<title>google_project_service.tbd&#45;service</title>
<polygon fill="lightblue" stroke="black" points="112.75,-107 0,-107 0,-60 112.75,-60 112.75,-107"/>
<text xml:space="preserve" text-anchor="middle" x="56.38" y="-89.7" font-family="sans-serif" font-size="14.00">Project Service</text>
<text xml:space="preserve" text-anchor="middle" x="56.38" y="-70.2" font-family="sans-serif" font-size="14.00">(root)</text>
</g>
<!-- module.budget.data.google_project.project -->
<g id="node3" class="node">
<title>module.budget.data.google_project.project</title>
<polygon fill="lightgreen" stroke="black" points="299,-101.5 150.25,-101.5 150.25,-65.5 299,-65.5 299,-101.5"/>
<text xml:space="preserve" text-anchor="middle" x="224.62" y="-79.95" font-family="sans-serif" font-size="14.00">data: google_project</text>
</g>
<!-- module.budget.data.google_project.project&#45;&gt;google_project_service.tbd&#45;service -->
<g id="edge1" class="edge">
<title>module.budget.data.google_project.project&#45;&gt;google_project_service.tbd&#45;service</title>
<path fill="none" stroke="black" d="M150.22,-83.5C141.61,-83.5 132.86,-83.5 124.34,-83.5"/>
<polygon fill="black" stroke="black" points="124.42,-80 114.42,-83.5 124.42,-87 124.42,-80"/>
</g>
<!-- module.budget.google_billing_budget.budget -->
<g id="node4" class="node">
<title>module.budget.google_billing_budget.budget</title>
<polygon fill="orange" stroke="black" points="446.25,-101.5 336.5,-101.5 336.5,-65.5 446.25,-65.5 446.25,-101.5"/>
<text xml:space="preserve" text-anchor="middle" x="391.38" y="-79.95" font-family="sans-serif" font-size="14.00">billing_budget</text>
</g>
<!-- module.budget.google_billing_budget.budget&#45;&gt;google_monitoring_notification_channel.notification_channel -->
<g id="edge2" class="edge">
<title>module.budget.google_billing_budget.budget&#45;&gt;google_monitoring_notification_channel.notification_channel</title>
<path fill="none" stroke="black" d="M339.6,-65.01C327.71,-60.68 314.78,-55.97 302.04,-51.33"/>
<polygon fill="black" stroke="black" points="303.43,-48.11 292.84,-47.98 301.04,-54.69 303.43,-48.11"/>
</g>
<!-- module.budget.google_billing_budget.budget&#45;&gt;module.budget.data.google_project.project -->
<g id="edge3" class="edge">
<title>module.budget.google_billing_budget.budget&#45;&gt;module.budget.data.google_project.project</title>
<path fill="none" stroke="black" d="M336.43,-83.5C328.21,-83.5 319.56,-83.5 310.86,-83.5"/>
<polygon fill="black" stroke="black" points="310.95,-80 300.95,-83.5 310.95,-87 310.95,-80"/>
</g>
</g>
</svg>
