<?xml version="1.0" encoding="UTF-8" standalone="no"?>
<!DOCTYPE svg PUBLIC "-//W3C//DTD SVG 1.1//EN"
 "http://www.w3.org/Graphics/SVG/1.1/DTD/svg11.dtd">
<!-- Generated by graphviz version 10.0.1 (20240210.2158)
 -->
<!-- Pages: 1 -->
<svg width="1528pt" height="548pt"
 viewBox="0.00 0.00 1528.30 548.00" xmlns="http://www.w3.org/2000/svg" xmlns:xlink="http://www.w3.org/1999/xlink">
<g id="graph0" class="graph" transform="scale(1 1) rotate(0) translate(4 544)">
<polygon fill="white" stroke="none" points="-4,4 -4,-544 1524.3,-544 1524.3,4 -4,4"/>
<!-- [root] google_project.tbd_project (expand) -->
<g id="node1" class="node">
<title>[root] google_project.tbd_project (expand)</title>
<polygon fill="none" stroke="black" points="835.88,-252 673.62,-252 673.62,-216 835.88,-216 835.88,-252"/>
<text text-anchor="middle" x="754.75" y="-228.95" font-family="Times,serif" font-size="14.00">google_project.tbd_project</text>
</g>
<!-- [root] provider[&quot;registry.terraform.io/hashicorp/google&quot;] -->
<g id="node9" class="node">
<title>[root] provider[&quot;registry.terraform.io/hashicorp/google&quot;]</title>
<polygon fill="none" stroke="black" points="575.75,-180 296.12,-162 575.75,-144 855.38,-162 575.75,-180"/>
<text text-anchor="middle" x="575.75" y="-156.95" font-family="Times,serif" font-size="14.00">provider[&quot;registry.terraform.io/hashicorp/google&quot;]</text>
</g>
<!-- [root] google_project.tbd_project (expand)&#45;&gt;[root] provider[&quot;registry.terraform.io/hashicorp/google&quot;] -->
<g id="edge1" class="edge">
<title>[root] google_project.tbd_project (expand)&#45;&gt;[root] provider[&quot;registry.terraform.io/hashicorp/google&quot;]</title>
<path fill="none" stroke="black" d="M710.04,-215.52C684.1,-205.37 651.4,-192.58 624.76,-182.17"/>
<polygon fill="black" stroke="black" points="626.13,-178.94 615.54,-178.56 623.58,-185.46 626.13,-178.94"/>
</g>
<!-- [root] var.billing_account -->
<g id="node10" class="node">
<title>[root] var.billing_account</title>
<polygon fill="none" stroke="black" points="987.88,-180 873.62,-180 873.62,-144 993.88,-144 993.88,-174 987.88,-180"/>
<polyline fill="none" stroke="black" points="987.88,-180 987.88,-174"/>
<polyline fill="none" stroke="black" points="993.88,-174 987.88,-174"/>
<text text-anchor="middle" x="933.75" y="-156.95" font-family="Times,serif" font-size="14.00">var.billing_account</text>
</g>
<!-- [root] google_project.tbd_project (expand)&#45;&gt;[root] var.billing_account -->
<g id="edge2" class="edge">
<title>[root] google_project.tbd_project (expand)&#45;&gt;[root] var.billing_account</title>
<path fill="none" stroke="black" d="M799.46,-215.52C823.47,-206.13 853.27,-194.47 878.7,-184.53"/>
<polygon fill="black" stroke="black" points="879.85,-187.83 887.89,-180.93 877.3,-181.32 879.85,-187.83"/>
</g>
<!-- [root] google_project_iam_audit_config.tbd_project_audit (expand) -->
<g id="node2" class="node">
<title>[root] google_project_iam_audit_config.tbd_project_audit (expand)</title>
<polygon fill="none" stroke="black" points="727.12,-324 428.38,-324 428.38,-288 727.12,-288 727.12,-324"/>
<text text-anchor="middle" x="577.75" y="-300.95" font-family="Times,serif" font-size="14.00">google_project_iam_audit_config.tbd_project_audit</text>
</g>
<!-- [root] google_project_iam_audit_config.tbd_project_audit (expand)&#45;&gt;[root] google_project.tbd_project (expand) -->
<g id="edge3" class="edge">
<title>[root] google_project_iam_audit_config.tbd_project_audit (expand)&#45;&gt;[root] google_project.tbd_project (expand)</title>
<path fill="none" stroke="black" d="M621.96,-287.52C645.7,-278.13 675.17,-266.47 700.32,-256.53"/>
<polygon fill="black" stroke="black" points="701.38,-259.87 709.39,-252.94 698.81,-253.36 701.38,-259.87"/>
</g>
<!-- [root] google_project_iam_member.tbd&#45;editor&#45;member (expand) -->
<g id="node3" class="node">
<title>[root] google_project_iam_member.tbd&#45;editor&#45;member (expand)</title>
<polygon fill="none" stroke="black" points="1017.62,-396 733.88,-396 733.88,-360 1017.62,-360 1017.62,-396"/>
<text text-anchor="middle" x="875.75" y="-372.95" font-family="Times,serif" font-size="14.00">google_project_iam_member.tbd&#45;editor&#45;member</text>
</g>
<!-- [root] google_service_account.tbd&#45;terraform (expand) -->
<g id="node7" class="node">
<title>[root] google_service_account.tbd&#45;terraform (expand)</title>
<polygon fill="none" stroke="black" points="1006.62,-324 782.88,-324 782.88,-288 1006.62,-288 1006.62,-324"/>
<text text-anchor="middle" x="894.75" y="-300.95" font-family="Times,serif" font-size="14.00">google_service_account.tbd&#45;terraform</text>
</g>
<!-- [root] google_project_iam_member.tbd&#45;editor&#45;member (expand)&#45;&gt;[root] google_service_account.tbd&#45;terraform (expand) -->
<g id="edge4" class="edge">
<title>[root] google_project_iam_member.tbd&#45;editor&#45;member (expand)&#45;&gt;[root] google_service_account.tbd&#45;terraform (expand)</title>
<path fill="none" stroke="black" d="M880.45,-359.7C882.47,-352.24 884.89,-343.32 887.16,-334.97"/>
<polygon fill="black" stroke="black" points="890.47,-336.13 889.71,-325.57 883.71,-334.3 890.47,-336.13"/>
</g>
<!-- [root] google_project_iam_member.tbd&#45;editor&#45;other&#45;members (expand) -->
<g id="node4" class="node">
<title>[root] google_project_iam_member.tbd&#45;editor&#45;other&#45;members (expand)</title>
<polygon fill="none" stroke="black" points="715.38,-396 394.12,-396 394.12,-360 715.38,-360 715.38,-396"/>
<text text-anchor="middle" x="554.75" y="-372.95" font-family="Times,serif" font-size="14.00">google_project_iam_member.tbd&#45;editor&#45;other&#45;members</text>
</g>
<!-- [root] google_project_iam_member.tbd&#45;editor&#45;other&#45;members (expand)&#45;&gt;[root] google_project.tbd_project (expand) -->
<g id="edge5" class="edge">
<title>[root] google_project_iam_member.tbd&#45;editor&#45;other&#45;members (expand)&#45;&gt;[root] google_project.tbd_project (expand)</title>
<path fill="none" stroke="black" d="M679.72,-359.64C700.73,-351.71 720.6,-340.32 735.75,-324 750.63,-307.96 754.97,-283.24 755.82,-263.91"/>
<polygon fill="black" stroke="black" points="759.32,-263.98 755.94,-253.94 752.32,-263.89 759.32,-263.98"/>
</g>
<!-- [root] google_project_iam_member.tbd&#45;editor&#45;supervisors (expand) -->
<g id="node5" class="node">
<title>[root] google_project_iam_member.tbd&#45;editor&#45;supervisors (expand)</title>
<polygon fill="none" stroke="black" points="299.5,-396 0,-396 0,-360 299.5,-360 299.5,-396"/>
<text text-anchor="middle" x="149.75" y="-372.95" font-family="Times,serif" font-size="14.00">google_project_iam_member.tbd&#45;editor&#45;supervisors</text>
</g>
<!-- [root] google_project_iam_member.tbd&#45;editor&#45;supervisors (expand)&#45;&gt;[root] google_project.tbd_project (expand) -->
<g id="edge6" class="edge">
<title>[root] google_project_iam_member.tbd&#45;editor&#45;supervisors (expand)&#45;&gt;[root] google_project.tbd_project (expand)</title>
<path fill="none" stroke="black" d="M153.45,-359.59C158.86,-338.77 171.1,-304.65 195.75,-288 233.42,-262.55 512.93,-246.05 661.88,-238.97"/>
<polygon fill="black" stroke="black" points="661.92,-242.47 671.74,-238.51 661.59,-235.48 661.92,-242.47"/>
</g>
<!-- [root] google_project_service.tbd&#45;service (expand) -->
<g id="node6" class="node">
<title>[root] google_project_service.tbd&#45;service (expand)</title>
<polygon fill="none" stroke="black" points="410.62,-324 204.88,-324 204.88,-288 410.62,-288 410.62,-324"/>
<text text-anchor="middle" x="307.75" y="-300.95" font-family="Times,serif" font-size="14.00">google_project_service.tbd&#45;service</text>
</g>
<!-- [root] google_project_service.tbd&#45;service (expand)&#45;&gt;[root] google_project.tbd_project (expand) -->
<g id="edge7" class="edge">
<title>[root] google_project_service.tbd&#45;service (expand)&#45;&gt;[root] google_project.tbd_project (expand)</title>
<path fill="none" stroke="black" d="M410.86,-288.85C486.76,-276.97 589.07,-260.95 662.33,-249.47"/>
<polygon fill="black" stroke="black" points="662.54,-252.98 671.87,-247.98 661.45,-246.07 662.54,-252.98"/>
</g>
<!-- [root] google_service_account.tbd&#45;terraform (expand)&#45;&gt;[root] google_project.tbd_project (expand) -->
<g id="edge8" class="edge">
<title>[root] google_service_account.tbd&#45;terraform (expand)&#45;&gt;[root] google_project.tbd_project (expand)</title>
<path fill="none" stroke="black" d="M859.78,-287.52C841.52,-278.39 818.97,-267.11 799.46,-257.35"/>
<polygon fill="black" stroke="black" points="801.13,-254.28 790.62,-252.94 798,-260.54 801.13,-254.28"/>
</g>
<!-- [root] google_storage_bucket.tbd&#45;state&#45;bucket (expand) -->
<g id="node8" class="node">
<title>[root] google_storage_bucket.tbd&#45;state&#45;bucket (expand)</title>
<polygon fill="none" stroke="black" points="1305.75,-396 1073.75,-396 1073.75,-360 1305.75,-360 1305.75,-396"/>
<text text-anchor="middle" x="1189.75" y="-372.95" font-family="Times,serif" font-size="14.00">google_storage_bucket.tbd&#45;state&#45;bucket</text>
</g>
<!-- [root] google_storage_bucket.tbd&#45;state&#45;bucket (expand)&#45;&gt;[root] google_project.tbd_project (expand) -->
<g id="edge9" class="edge">
<title>[root] google_storage_bucket.tbd&#45;state&#45;bucket (expand)&#45;&gt;[root] google_project.tbd_project (expand)</title>
<path fill="none" stroke="black" d="M1161.58,-359.53C1128.02,-339.46 1069.72,-306.88 1015.75,-288 961.38,-268.98 898.12,-255.92 847.5,-247.52"/>
<polygon fill="black" stroke="black" points="848.16,-244.08 837.73,-245.94 847.04,-250.99 848.16,-244.08"/>
</g>
<!-- [root] var.region -->
<g id="node11" class="node">
<title>[root] var.region</title>
<polygon fill="none" stroke="black" points="521.12,-108 456.38,-108 456.38,-72 527.12,-72 527.12,-102 521.12,-108"/>
<polyline fill="none" stroke="black" points="521.12,-108 521.12,-102"/>
<polyline fill="none" stroke="black" points="527.12,-102 521.12,-102"/>
<text text-anchor="middle" x="491.75" y="-84.95" font-family="Times,serif" font-size="14.00">var.region</text>
</g>
<!-- [root] provider[&quot;registry.terraform.io/hashicorp/google&quot;]&#45;&gt;[root] var.region -->
<g id="edge22" class="edge">
<title>[root] provider[&quot;registry.terraform.io/hashicorp/google&quot;]&#45;&gt;[root] var.region</title>
<path fill="none" stroke="black" d="M556.27,-144.76C545.84,-136.07 532.78,-125.19 521.15,-115.5"/>
<polygon fill="black" stroke="black" points="523.68,-113.05 513.76,-109.34 519.2,-118.43 523.68,-113.05"/>
</g>
<!-- [root] local.project (expand) -->
<g id="node14" class="node">
<title>[root] local.project (expand)</title>
<ellipse fill="none" stroke="black" cx="660.75" cy="-90" rx="115.84" ry="18"/>
<text text-anchor="middle" x="660.75" y="-84.95" font-family="Times,serif" font-size="14.00">[root] local.project (expand)</text>
</g>
<!-- [root] provider[&quot;registry.terraform.io/hashicorp/google&quot;]&#45;&gt;[root] local.project (expand) -->
<g id="edge21" class="edge">
<title>[root] provider[&quot;registry.terraform.io/hashicorp/google&quot;]&#45;&gt;[root] local.project (expand)</title>
<path fill="none" stroke="black" d="M595.04,-145.12C605.73,-136.31 619.26,-125.17 631.25,-115.29"/>
<polygon fill="black" stroke="black" points="633.39,-118.07 638.89,-109.01 628.94,-112.66 633.39,-118.07"/>
</g>
<!-- [root] var.tbd_semester -->
<g id="node12" class="node">
<title>[root] var.tbd_semester</title>
<polygon fill="none" stroke="black" points="653.88,-36 551.62,-36 551.62,0 659.88,0 659.88,-30 653.88,-36"/>
<polyline fill="none" stroke="black" points="653.88,-36 653.88,-30"/>
<polyline fill="none" stroke="black" points="659.88,-30 653.88,-30"/>
<text text-anchor="middle" x="605.75" y="-12.95" font-family="Times,serif" font-size="14.00">var.tbd_semester</text>
</g>
<!-- [root] var.user_id -->
<g id="node13" class="node">
<title>[root] var.user_id</title>
<polygon fill="none" stroke="black" points="747.75,-36 677.75,-36 677.75,0 753.75,0 753.75,-30 747.75,-36"/>
<polyline fill="none" stroke="black" points="747.75,-36 747.75,-30"/>
<polyline fill="none" stroke="black" points="753.75,-30 747.75,-30"/>
<text text-anchor="middle" x="715.75" y="-12.95" font-family="Times,serif" font-size="14.00">var.user_id</text>
</g>
<!-- [root] local.project (expand)&#45;&gt;[root] var.tbd_semester -->
<g id="edge10" class="edge">
<title>[root] local.project (expand)&#45;&gt;[root] var.tbd_semester</title>
<path fill="none" stroke="black" d="M647.15,-71.7C640.83,-63.64 633.17,-53.89 626.16,-44.98"/>
<polygon fill="black" stroke="black" points="629.05,-43 620.12,-37.29 623.55,-47.32 629.05,-43"/>
</g>
<!-- [root] local.project (expand)&#45;&gt;[root] var.user_id -->
<g id="edge11" class="edge">
<title>[root] local.project (expand)&#45;&gt;[root] var.user_id</title>
<path fill="none" stroke="black" d="M674.35,-71.7C680.67,-63.64 688.33,-53.89 695.34,-44.98"/>
<polygon fill="black" stroke="black" points="697.95,-47.32 701.38,-37.29 692.45,-43 697.95,-47.32"/>
</g>
<!-- [root] output.project_name (expand) -->
<g id="node15" class="node">
<title>[root] output.project_name (expand)</title>
<ellipse fill="none" stroke="black" cx="1373.75" cy="-306" rx="146.55" ry="18"/>
<text text-anchor="middle" x="1373.75" y="-300.95" font-family="Times,serif" font-size="14.00">[root] output.project_name (expand)</text>
</g>
<!-- [root] output.project_name (expand)&#45;&gt;[root] google_project.tbd_project (expand) -->
<g id="edge12" class="edge">
<title>[root] output.project_name (expand)&#45;&gt;[root] google_project.tbd_project (expand)</title>
<path fill="none" stroke="black" d="M1268.75,-293.13C1150.53,-279.76 960.26,-258.24 847.38,-245.48"/>
<polygon fill="black" stroke="black" points="847.86,-242.01 837.53,-244.36 847.08,-248.96 847.86,-242.01"/>
</g>
<!-- [root] output.terraform_service_account (expand) -->
<g id="node16" class="node">
<title>[root] output.terraform_service_account (expand)</title>
<ellipse fill="none" stroke="black" cx="827.75" cy="-450" rx="195.17" ry="18"/>
<text text-anchor="middle" x="827.75" y="-444.95" font-family="Times,serif" font-size="14.00">[root] output.terraform_service_account (expand)</text>
</g>
<!-- [root] output.terraform_service_account (expand)&#45;&gt;[root] google_service_account.tbd&#45;terraform (expand) -->
<g id="edge13" class="edge">
<title>[root] output.terraform_service_account (expand)&#45;&gt;[root] google_service_account.tbd&#45;terraform (expand)</title>
<path fill="none" stroke="black" d="M927.14,-434.09C970.24,-425.4 1013.84,-412.8 1026.75,-396 1036.5,-383.31 1035.71,-373.25 1026.75,-360 1017.7,-346.62 1004.66,-336.62 990.26,-329.14"/>
<polygon fill="black" stroke="black" points="992.01,-326.09 981.47,-325 989.03,-332.43 992.01,-326.09"/>
</g>
<!-- [root] output.terraform_state_bucket (expand) -->
<g id="node17" class="node">
<title>[root] output.terraform_state_bucket (expand)</title>
<ellipse fill="none" stroke="black" cx="1222.75" cy="-450" rx="181.86" ry="18"/>
<text text-anchor="middle" x="1222.75" y="-444.95" font-family="Times,serif" font-size="14.00">[root] output.terraform_state_bucket (expand)</text>
</g>
<!-- [root] output.terraform_state_bucket (expand)&#45;&gt;[root] google_storage_bucket.tbd&#45;state&#45;bucket (expand) -->
<g id="edge14" class="edge">
<title>[root] output.terraform_state_bucket (expand)&#45;&gt;[root] google_storage_bucket.tbd&#45;state&#45;bucket (expand)</title>
<path fill="none" stroke="black" d="M1214.59,-431.7C1211,-424.07 1206.68,-414.92 1202.67,-406.4"/>
<polygon fill="black" stroke="black" points="1205.89,-405.03 1198.46,-397.47 1199.56,-408.01 1205.89,-405.03"/>
</g>
<!-- [root] provider[&quot;registry.terraform.io/hashicorp/google&quot;] (close) -->
<g id="node18" class="node">
<title>[root] provider[&quot;registry.terraform.io/hashicorp/google&quot;] (close)</title>
<ellipse fill="none" stroke="black" cx="365.75" cy="-450" rx="248.91" ry="18"/>
<text text-anchor="middle" x="365.75" y="-444.95" font-family="Times,serif" font-size="14.00">[root] provider[&quot;registry.terraform.io/hashicorp/google&quot;] (close)</text>
</g>
<!-- [root] provider[&quot;registry.terraform.io/hashicorp/google&quot;] (close)&#45;&gt;[root] google_project_iam_audit_config.tbd_project_audit (expand) -->
<g id="edge15" class="edge">
<title>[root] provider[&quot;registry.terraform.io/hashicorp/google&quot;] (close)&#45;&gt;[root] google_project_iam_audit_config.tbd_project_audit (expand)</title>
<path fill="none" stroke="black" d="M364.48,-431.52C364.04,-411.6 366.53,-379.3 384.75,-360 397.51,-346.48 413.37,-336.3 430.47,-328.65"/>
<polygon fill="black" stroke="black" points="431.36,-332.06 439.27,-325.01 428.69,-325.6 431.36,-332.06"/>
</g>
<!-- [root] provider[&quot;registry.terraform.io/hashicorp/google&quot;] (close)&#45;&gt;[root] google_project_iam_member.tbd&#45;editor&#45;member (expand) -->
<g id="edge16" class="edge">
<title>[root] provider[&quot;registry.terraform.io/hashicorp/google&quot;] (close)&#45;&gt;[root] google_project_iam_member.tbd&#45;editor&#45;member (expand)</title>
<path fill="none" stroke="black" d="M478.62,-433.51C554.84,-423.05 655.95,-409.17 737.07,-398.03"/>
<polygon fill="black" stroke="black" points="737.45,-401.52 746.88,-396.69 736.5,-394.58 737.45,-401.52"/>
</g>
<!-- [root] provider[&quot;registry.terraform.io/hashicorp/google&quot;] (close)&#45;&gt;[root] google_project_iam_member.tbd&#45;editor&#45;other&#45;members (expand) -->
<g id="edge17" class="edge">
<title>[root] provider[&quot;registry.terraform.io/hashicorp/google&quot;] (close)&#45;&gt;[root] google_project_iam_member.tbd&#45;editor&#45;other&#45;members (expand)</title>
<path fill="none" stroke="black" d="M411.98,-431.88C437.65,-422.37 469.8,-410.46 497.09,-400.35"/>
<polygon fill="black" stroke="black" points="498.1,-403.71 506.26,-396.96 495.67,-397.15 498.1,-403.71"/>
</g>
<!-- [root] provider[&quot;registry.terraform.io/hashicorp/google&quot;] (close)&#45;&gt;[root] google_project_iam_member.tbd&#45;editor&#45;supervisors (expand) -->
<g id="edge18" class="edge">
<title>[root] provider[&quot;registry.terraform.io/hashicorp/google&quot;] (close)&#45;&gt;[root] google_project_iam_member.tbd&#45;editor&#45;supervisors (expand)</title>
<path fill="none" stroke="black" d="M313.19,-431.97C283.47,-422.34 246.08,-410.22 214.56,-400"/>
<polygon fill="black" stroke="black" points="215.71,-396.7 205.12,-396.94 213.55,-403.36 215.71,-396.7"/>
</g>
<!-- [root] provider[&quot;registry.terraform.io/hashicorp/google&quot;] (close)&#45;&gt;[root] google_project_service.tbd&#45;service (expand) -->
<g id="edge19" class="edge">
<title>[root] provider[&quot;registry.terraform.io/hashicorp/google&quot;] (close)&#45;&gt;[root] google_project_service.tbd&#45;service (expand)</title>
<path fill="none" stroke="black" d="M358.64,-431.59C348.76,-407.4 330.77,-363.36 319.04,-334.65"/>
<polygon fill="black" stroke="black" points="322.33,-333.45 315.31,-325.51 315.85,-336.09 322.33,-333.45"/>
</g>
<!-- [root] provider[&quot;registry.terraform.io/hashicorp/google&quot;] (close)&#45;&gt;[root] google_storage_bucket.tbd&#45;state&#45;bucket (expand) -->
<g id="edge20" class="edge">
<title>[root] provider[&quot;registry.terraform.io/hashicorp/google&quot;] (close)&#45;&gt;[root] google_storage_bucket.tbd&#45;state&#45;bucket (expand)</title>
<path fill="none" stroke="black" d="M535.66,-436.5C669.23,-426.4 859.95,-411.38 1026.75,-396 1038.24,-394.94 1050.17,-393.79 1062.13,-392.6"/>
<polygon fill="black" stroke="black" points="1062.48,-396.09 1072.08,-391.61 1061.78,-389.12 1062.48,-396.09"/>
</g>
<!-- [root] root -->
<g id="node19" class="node">
<title>[root] root</title>
<ellipse fill="none" stroke="black" cx="1024.75" cy="-522" rx="49.3" ry="18"/>
<text text-anchor="middle" x="1024.75" y="-516.95" font-family="Times,serif" font-size="14.00">[root] root</text>
</g>
<!-- [root] root&#45;&gt;[root] output.project_name (expand) -->
<g id="edge23" class="edge">
<title>[root] root&#45;&gt;[root] output.project_name (expand)</title>
<path fill="none" stroke="black" d="M1074.5,-521.94C1169.29,-522.56 1370.27,-517.81 1413.75,-468 1446.99,-429.92 1415.86,-368.39 1392.99,-333.45"/>
<polygon fill="black" stroke="black" points="1396.17,-331.91 1387.67,-325.6 1390.38,-335.84 1396.17,-331.91"/>
</g>
<!-- [root] root&#45;&gt;[root] output.terraform_service_account (expand) -->
<g id="edge24" class="edge">
<title>[root] root&#45;&gt;[root] output.terraform_service_account (expand)</title>
<path fill="none" stroke="black" d="M990.44,-508.81C961.69,-498.59 920.02,-483.79 886.05,-471.72"/>
<polygon fill="black" stroke="black" points="887.34,-468.46 876.75,-468.41 885,-475.06 887.34,-468.46"/>
</g>
<!-- [root] root&#45;&gt;[root] output.terraform_state_bucket (expand) -->
<g id="edge25" class="edge">
<title>[root] root&#45;&gt;[root] output.terraform_state_bucket (expand)</title>
<path fill="none" stroke="black" d="M1059.24,-508.81C1088.23,-498.56 1130.3,-483.68 1164.51,-471.59"/>
<polygon fill="black" stroke="black" points="1165.62,-474.91 1173.88,-468.28 1163.29,-468.31 1165.62,-474.91"/>
</g>
<!-- [root] root&#45;&gt;[root] provider[&quot;registry.terraform.io/hashicorp/google&quot;] (close) -->
<g id="edge26" class="edge">
<title>[root] root&#45;&gt;[root] provider[&quot;registry.terraform.io/hashicorp/google&quot;] (close)</title>
<path fill="none" stroke="black" d="M977.88,-516.02C882.36,-505.87 661.61,-482.43 513.01,-466.64"/>
<polygon fill="black" stroke="black" points="513.81,-463.21 503.49,-465.63 513.07,-470.17 513.81,-463.21"/>
</g>
</g>
</svg>
